<svg width="217" height="82" viewBox="0 0 217 82" fill="none" xmlns="http://www.w3.org/2000/svg">
<path d="M112.71 53.7346C110.964 53.7346 109.393 53.4352 107.996 52.8366C106.599 52.213 105.502 51.3399 104.703 50.2175C103.905 49.095 103.506 47.7854 103.506 46.2888H108.071C108.171 47.4112 108.607 48.3342 109.38 49.0576C110.179 49.7809 111.289 50.1426 112.71 50.1426C114.182 50.1426 115.33 49.7934 116.153 49.095C116.976 48.3716 117.387 47.4487 117.387 46.3262C117.387 45.4531 117.126 44.7422 116.602 44.1935C116.103 43.6447 115.467 43.2206 114.694 42.9213C113.945 42.622 112.898 42.2977 111.551 41.9485C109.854 41.4995 108.47 41.0505 107.397 40.6015C106.35 40.1276 105.452 39.4042 104.703 38.4314C103.955 37.4585 103.581 36.1615 103.581 34.5401C103.581 33.0434 103.955 31.7339 104.703 30.6114C105.452 29.4889 106.499 28.6283 107.846 28.0297C109.193 27.431 110.752 27.1317 112.523 27.1317C115.043 27.1317 117.101 27.7678 118.697 29.0399C120.318 30.2871 121.216 32.0083 121.391 34.2033H116.677C116.602 33.2555 116.153 32.4448 115.33 31.7713C114.506 31.0978 113.421 30.7611 112.074 30.7611C110.852 30.7611 109.854 31.0729 109.081 31.6965C108.308 32.3201 107.921 33.218 107.921 34.3904C107.921 35.1886 108.158 35.8496 108.632 36.3735C109.131 36.8724 109.755 37.2715 110.503 37.5708C111.251 37.8701 112.274 38.1944 113.571 38.5436C115.292 39.0175 116.689 39.4915 117.762 39.9654C118.859 40.4394 119.782 41.1752 120.53 42.173C121.304 43.1458 121.69 44.4554 121.69 46.1017C121.69 47.4237 121.329 48.6709 120.605 49.8433C119.907 51.0157 118.872 51.9635 117.5 52.6869C116.153 53.3854 114.556 53.7346 112.71 53.7346ZM145.282 32.8564L132.635 63.1634H128.22L132.411 53.1359L124.291 32.8564H129.043L134.843 48.5711L140.867 32.8564H145.282ZM158.902 32.5196C160.524 32.5196 161.971 32.8564 163.243 33.5298C164.54 34.2033 165.55 35.2011 166.273 36.5231C166.997 37.8452 167.358 39.4416 167.358 41.3124V53.4727H163.13V41.9485C163.13 40.1026 162.669 38.6933 161.746 37.7205C160.823 36.7227 159.563 36.2238 157.967 36.2238C156.371 36.2238 155.098 36.7227 154.151 37.7205C153.228 38.6933 152.766 40.1026 152.766 41.9485V53.4727H148.501V32.8564H152.766V35.2136C153.465 34.3655 154.35 33.7045 155.423 33.2305C156.52 32.7566 157.68 32.5196 158.902 32.5196ZM171.378 43.1458C171.378 41.0255 171.802 39.1672 172.65 37.5708C173.523 35.9494 174.72 34.7022 176.242 33.8292C177.763 32.9561 179.509 32.5196 181.48 32.5196C183.974 32.5196 186.032 33.1183 187.654 34.3156C189.3 35.488 190.41 37.1717 190.984 39.3668H186.381C186.007 38.3441 185.409 37.5458 184.585 36.9721C183.762 36.3984 182.727 36.1116 181.48 36.1116C179.734 36.1116 178.337 36.7352 177.289 37.9824C176.267 39.2046 175.755 40.9258 175.755 43.1458C175.755 45.3658 176.267 47.0994 177.289 48.3466C178.337 49.5938 179.734 50.2175 181.48 50.2175C183.949 50.2175 185.583 49.1324 186.381 46.9622H190.984C190.385 49.0576 189.262 50.7288 187.616 51.976C185.97 53.1983 183.924 53.8094 181.48 53.8094C179.509 53.8094 177.763 53.3729 176.242 52.4998C174.72 51.6018 173.523 50.3546 172.65 48.7582C171.802 47.1369 171.378 45.266 171.378 43.1458ZM199.5 27.4684V53.4727H195.234V27.4684H199.5ZM210.076 36.3361V47.748C210.076 48.5213 210.251 49.0825 210.6 49.4317C210.974 49.756 211.598 49.9181 212.471 49.9181H215.09V53.4727H211.723C209.802 53.4727 208.33 53.0237 207.308 52.1257C206.285 51.2277 205.773 49.7685 205.773 47.748V36.3361H203.341V32.8564H205.773V27.7303H210.076V32.8564H215.09V36.3361H210.076Z" fill="white"/>
<rect opacity="0.2" width="74.8323" height="74.8323" rx="37.4161" fill="white"/>
<rect x="32.7383" y="31.1797" width="49.8882" height="49.8882" rx="24.9441" fill="white"/>
</svg>
