<svg width="139" height="52" viewBox="0 0 139 52" fill="none" xmlns="http://www.w3.org/2000/svg">
<path d="M72.296 34.168C71.176 34.168 70.168 33.976 69.272 33.592C68.376 33.192 67.672 32.632 67.16 31.912C66.648 31.192 66.392 30.352 66.392 29.392H69.32C69.384 30.112 69.664 30.704 70.16 31.168C70.672 31.632 71.384 31.864 72.296 31.864C73.24 31.864 73.976 31.64 74.504 31.192C75.032 30.728 75.296 30.136 75.296 29.416C75.296 28.856 75.128 28.4 74.792 28.048C74.472 27.696 74.064 27.424 73.568 27.232C73.088 27.04 72.416 26.832 71.552 26.608C70.464 26.32 69.576 26.032 68.888 25.744C68.216 25.44 67.64 24.976 67.16 24.352C66.68 23.728 66.44 22.896 66.44 21.856C66.44 20.896 66.68 20.056 67.16 19.336C67.64 18.616 68.312 18.064 69.176 17.68C70.04 17.296 71.04 17.104 72.176 17.104C73.792 17.104 75.112 17.512 76.136 18.328C77.176 19.128 77.752 20.232 77.864 21.64H74.84C74.792 21.032 74.504 20.512 73.976 20.08C73.448 19.648 72.752 19.432 71.888 19.432C71.104 19.432 70.464 19.632 69.968 20.032C69.472 20.432 69.224 21.008 69.224 21.76C69.224 22.272 69.376 22.696 69.68 23.032C70 23.352 70.4 23.608 70.88 23.8C71.36 23.992 72.016 24.2 72.848 24.424C73.952 24.728 74.848 25.032 75.536 25.336C76.24 25.64 76.832 26.112 77.312 26.752C77.808 27.376 78.056 28.216 78.056 29.272C78.056 30.12 77.824 30.92 77.36 31.672C76.912 32.424 76.248 33.032 75.368 33.496C74.504 33.944 73.48 34.168 72.296 34.168ZM93.1884 20.776L85.0764 40.216H82.2444L84.9324 33.784L79.7244 20.776H82.7724L86.4924 30.856L90.3564 20.776H93.1884ZM101.925 20.56C102.965 20.56 103.893 20.776 104.709 21.208C105.541 21.64 106.189 22.28 106.653 23.128C107.117 23.976 107.349 25 107.349 26.2V34H104.637V26.608C104.637 25.424 104.341 24.52 103.749 23.896C103.157 23.256 102.349 22.936 101.325 22.936C100.301 22.936 99.4851 23.256 98.8771 23.896C98.2851 24.52 97.9891 25.424 97.9891 26.608V34H95.2531V20.776H97.9891V22.288C98.4371 21.744 99.0051 21.32 99.6931 21.016C100.397 20.712 101.141 20.56 101.925 20.56ZM109.927 27.376C109.927 26.016 110.199 24.824 110.743 23.8C111.303 22.76 112.071 21.96 113.047 21.4C114.023 20.84 115.143 20.56 116.407 20.56C118.007 20.56 119.327 20.944 120.367 21.712C121.423 22.464 122.135 23.544 122.503 24.952H119.551C119.311 24.296 118.927 23.784 118.399 23.416C117.871 23.048 117.207 22.864 116.407 22.864C115.287 22.864 114.391 23.264 113.719 24.064C113.063 24.848 112.735 25.952 112.735 27.376C112.735 28.8 113.063 29.912 113.719 30.712C114.391 31.512 115.287 31.912 116.407 31.912C117.991 31.912 119.039 31.216 119.551 29.824H122.503C122.119 31.168 121.399 32.24 120.343 33.04C119.287 33.824 117.975 34.216 116.407 34.216C115.143 34.216 114.023 33.936 113.047 33.376C112.071 32.8 111.303 32 110.743 30.976C110.199 29.936 109.927 28.736 109.927 27.376ZM127.966 17.32V34H125.23V17.32H127.966ZM134.75 23.008V30.328C134.75 30.824 134.862 31.184 135.086 31.408C135.326 31.616 135.726 31.72 136.286 31.72H137.966V34H135.806C134.574 34 133.63 33.712 132.974 33.136C132.318 32.56 131.99 31.624 131.99 30.328V23.008H130.43V20.776H131.99V17.488H134.75V20.776H137.966V23.008H134.75Z" fill="#BA68C8"/>
<rect opacity="0.2" width="48" height="48" rx="24" fill="#BA68C8"/>
<rect x="21" y="20" width="32" height="32" rx="16" fill="#BA68C8"/>
</svg>
